<?xml version="1.0" standalone="no"?>
<!DOCTYPE svg PUBLIC "-//W3C//DTD SVG 20010904//EN"
 "http://www.w3.org/TR/2001/REC-SVG-20010904/DTD/svg10.dtd">
<svg version="1.0" xmlns="http://www.w3.org/2000/svg"
 width="700.000000pt" height="700.000000pt" viewBox="0 0 700.000000 700.000000"
 preserveAspectRatio="xMidYMid meet">
<metadata>
Created by potrace 1.11, written by Peter Selinger 2001-2013
</metadata>
<g transform="translate(0.000000,700.000000) scale(0.100000,-0.100000)"
fill="#000000" stroke="none">
<path d="M3468 5775 c-2 -1 -30 -5 -64 -8 -75 -7 -204 -54 -275 -99 -160 -103
-274 -264 -315 -445 -13 -59 -12 -229 2 -296 59 -273 302 -504 573 -544 45 -6
201 -6 231 0 54 12 143 43 192 67 159 79 291 229 348 396 29 83 31 97 35 209
13 350 -241 659 -585 711 -39 6 -138 12 -142 9z"/>
<path d="M1632 3314 c-280 -48 -502 -260 -566 -539 -23 -104 -16 -258 17 -360
77 -237 268 -413 511 -472 72 -18 230 -19 301 -3 136 31 257 99 355 199 264
271 265 702 1 970 -167 171 -387 244 -619 205z"/>
<path d="M5131 3314 c-115 -20 -227 -70 -317 -143 -61 -49 -159 -162 -170
-196 -4 -11 -12 -27 -18 -35 -37 -45 -74 -202 -74 -312 -1 -192 70 -362 208
-498 91 -90 142 -123 262 -164 299 -105 626 2 805 264 81 119 116 234 119 387
9 436 -382 771 -815 697z"/>
</g>
</svg>
